<?xml version="1.0" encoding="UTF-8"?><svg id="Layer_2" xmlns="http://www.w3.org/2000/svg" viewBox="0 0 72 72"><defs><style>.cls-1{fill:#0e99cd;}</style></defs><path class="cls-1" d="M.32,68.86c-.11,0-.14-.16-.04-.21.83-.38,2.73-1.33,4.26-2.66,2.76-2.4,6.33-7.08,7.82-8.91s3.01-3.19,5.07-3.19c1.83,0,3.23.47,4.67,1.75,1,.88,1.79,2.14,1.79,3.36,0,1.35-1.1,2.69-2.06,3.7s-3.62,3.38-7.16,4.82-5.63,1.53-7.47,1.57c-1.51.04-5.53-.17-6.88-.24Z"/><path class="cls-1" d="M21.84,47.67c-.1.11-.03.29.11.32.84.16,3.11.71,4.58,2.06,1.39,1.27,1.98,2.53,2.18,3.07.05.13.21.17.31.08L71.7,15.83s.06-.08.07-.14c.03-.71.18-5.91-1.49-8.39-1.78-2.65-5.29-4.67-9.15-4.37-.04,0-.09.02-.12.05-.54.49-5.48,5-13.45,14.33-7.9,9.24-23.69,27.95-25.73,30.36Z"/></svg>